<svg xmlns="http://www.w3.org/2000/svg" xmlns:xlink="http://www.w3.org/1999/xlink" viewBox="0 0 250.74 256.72"><defs><style>.cls-1{clip-path:url(#clip-path);filter:url(#luminosity-noclip-13);}.cls-2{fill:none;}.cls-15,.cls-3,.cls-31,.cls-35,.cls-39,.cls-47{isolation:isolate;}.cls-4{clip-path:url(#clip-path-2);}.cls-5{mask:url(#mask);}.cls-10,.cls-14,.cls-18,.cls-22,.cls-26,.cls-30,.cls-34,.cls-38,.cls-42,.cls-46,.cls-50,.cls-6,.cls-65,.cls-79{mix-blend-mode:multiply;}.cls-6{fill:url(#Degradado_sin_nombre_65);}.cls-7{clip-path:url(#clip-path-3);filter:url(#luminosity-noclip-18);}.cls-8{clip-path:url(#clip-path-4);}.cls-9{mask:url(#mask-2);}.cls-10{fill:url(#Degradado_sin_nombre_65-2);}.cls-11{clip-path:url(#clip-path-5);filter:url(#luminosity-noclip-19);}.cls-12{clip-path:url(#clip-path-6);}.cls-13{mask:url(#mask-3);}.cls-14{fill:url(#Degradado_sin_nombre_66);}.cls-15{filter:url(#luminosity-noclip-20);}.cls-16{clip-path:url(#clip-path-7);}.cls-17{mask:url(#mask-4);}.cls-18{fill:url(#Degradado_sin_nombre_65-3);}.cls-19{clip-path:url(#clip-path-8);filter:url(#luminosity-noclip-21);}.cls-20{clip-path:url(#clip-path-9);}.cls-21{mask:url(#mask-5);}.cls-22{fill:url(#Degradado_sin_nombre_66-2);}.cls-23{clip-path:url(#clip-path-10);filter:url(#luminosity-noclip-22);}.cls-24{clip-path:url(#clip-path-11);}.cls-25{mask:url(#mask-6);}.cls-26{fill:url(#Degradado_sin_nombre_69);}.cls-27{clip-path:url(#clip-path-12);filter:url(#luminosity-noclip-14);}.cls-28{clip-path:url(#clip-path-13);}.cls-29{mask:url(#mask-7);}.cls-30{fill:url(#Degradado_sin_nombre_69-2);}.cls-31{filter:url(#luminosity-noclip-23);}.cls-32{clip-path:url(#clip-path-14);}.cls-33{mask:url(#mask-8);}.cls-34{fill:url(#Degradado_sin_nombre_69-3);}.cls-35{filter:url(#luminosity-noclip-24);}.cls-36{clip-path:url(#clip-path-15);}.cls-37{mask:url(#mask-9);}.cls-38{fill:url(#Degradado_sin_nombre_66-3);}.cls-39{filter:url(#luminosity-noclip-15);}.cls-40{clip-path:url(#clip-path-16);}.cls-41{mask:url(#mask-10);}.cls-42{fill:url(#Degradado_sin_nombre_69-4);}.cls-43{clip-path:url(#clip-path-17);filter:url(#luminosity-noclip-16);}.cls-44{clip-path:url(#clip-path-18);}.cls-45{mask:url(#mask-11);}.cls-46{fill:url(#Degradado_sin_nombre_69-5);}.cls-47{filter:url(#luminosity-noclip-17);}.cls-48{clip-path:url(#clip-path-19);}.cls-49{mask:url(#mask-12);}.cls-50{fill:url(#Degradado_sin_nombre_66-4);}.cls-51{clip-path:url(#clip-path-20);}.cls-52{fill:url(#Degradado_sin_nombre_72);}.cls-53{clip-path:url(#clip-path-21);}.cls-54{fill:url(#Degradado_sin_nombre_72-2);}.cls-55{clip-path:url(#clip-path-22);}.cls-56{fill:url(#Degradado_sin_nombre_75);}.cls-57{clip-path:url(#clip-path-23);}.cls-58{fill:url(#Degradado_sin_nombre_72-3);}.cls-59{clip-path:url(#clip-path-24);}.cls-60{fill:url(#Degradado_sin_nombre_72-4);}.cls-61{fill:#f9b519;}.cls-62{clip-path:url(#clip-path-25);}.cls-63{fill:url(#Degradado_sin_nombre_68);}.cls-64{mask:url(#mask-13);}.cls-65{opacity:0.3;}.cls-66{clip-path:url(#clip-path-26);}.cls-67{clip-path:url(#clip-path-27);}.cls-68{fill:url(#Degradado_sin_nombre_64);}.cls-69{fill:#27306a;}.cls-70{mask:url(#mask-14);}.cls-71{clip-path:url(#clip-path-28);}.cls-72{mask:url(#mask-15);}.cls-73{clip-path:url(#clip-path-29);}.cls-74{clip-path:url(#clip-path-30);}.cls-75{fill:url(#Degradado_sin_nombre_68-2);}.cls-76{mask:url(#mask-16);}.cls-77{clip-path:url(#clip-path-31);}.cls-78{mask:url(#mask-17);}.cls-79{opacity:0.6;}.cls-80{clip-path:url(#clip-path-32);}.cls-81{clip-path:url(#clip-path-33);}.cls-82{fill:url(#Degradado_sin_nombre_35);}.cls-83{clip-path:url(#clip-path-34);}.cls-84{fill:url(#Degradado_sin_nombre_72-5);}.cls-85{clip-path:url(#clip-path-35);}.cls-86{fill:url(#Degradado_sin_nombre_72-6);}.cls-87{clip-path:url(#clip-path-36);}.cls-88{fill:url(#Degradado_sin_nombre_72-7);}.cls-89{fill:#61619e;}.cls-90{clip-path:url(#clip-path-37);}.cls-91{fill:url(#Degradado_sin_nombre_75-2);}.cls-92{clip-path:url(#clip-path-38);}.cls-93{fill:url(#Degradado_sin_nombre_75-3);}.cls-94{clip-path:url(#clip-path-39);}.cls-95{fill:url(#Degradado_sin_nombre_68-3);}.cls-96{mask:url(#mask-18);}.cls-97{clip-path:url(#clip-path-40);}.cls-98{clip-path:url(#clip-path-41);}.cls-99{fill:url(#Degradado_sin_nombre_64-2);}.cls-100{mask:url(#mask-19);}.cls-101{clip-path:url(#clip-path-42);}.cls-102{clip-path:url(#clip-path-43);}.cls-103{fill:url(#Degradado_sin_nombre_35-2);}.cls-104{clip-path:url(#clip-path-44);}.cls-105{fill:url(#Degradado_sin_nombre_72-8);}.cls-106{clip-path:url(#clip-path-45);}.cls-107{fill:url(#Degradado_sin_nombre_72-9);}.cls-108{clip-path:url(#clip-path-46);}.cls-109{fill:url(#Degradado_sin_nombre_72-10);}.cls-110{clip-path:url(#clip-path-47);}.cls-111{fill:url(#Degradado_sin_nombre_68-4);}.cls-112{mask:url(#mask-20);}.cls-113{clip-path:url(#clip-path-48);}.cls-114{clip-path:url(#clip-path-49);}.cls-115{fill:url(#Degradado_sin_nombre_64-3);}.cls-116{mask:url(#mask-21);}.cls-117{clip-path:url(#clip-path-50);}.cls-118{clip-path:url(#clip-path-51);}.cls-119{fill:url(#Degradado_sin_nombre_35-3);}.cls-120{mask:url(#mask-22);}.cls-121{clip-path:url(#clip-path-52);}.cls-122{fill:#de6254;}.cls-123{mask:url(#mask-23);}.cls-124{clip-path:url(#clip-path-53);}.cls-125{mask:url(#mask-24);}.cls-126{clip-path:url(#clip-path-54);}.cls-127{clip-path:url(#clip-path-55);}.cls-128{fill:url(#Degradado_sin_nombre_35-4);}.cls-129{filter:url(#luminosity-noclip-12);}.cls-130{filter:url(#luminosity-noclip-11);}.cls-131{filter:url(#luminosity-noclip-10);}.cls-132{filter:url(#luminosity-noclip-9);}.cls-133{filter:url(#luminosity-noclip-8);}.cls-134{filter:url(#luminosity-noclip-7);}.cls-135{filter:url(#luminosity-noclip-6);}.cls-136{filter:url(#luminosity-noclip-5);}.cls-137{filter:url(#luminosity-noclip-4);}.cls-138{filter:url(#luminosity-noclip-3);}.cls-139{filter:url(#luminosity-noclip-2);}.cls-140{filter:url(#luminosity-noclip);}</style><clipPath id="clip-path"><rect class="cls-2" x="115.52" y="139.18" width="21.77" height="39.8"/></clipPath><clipPath id="clip-path-2"><path class="cls-2" d="M137.07,143.7c-1,1.58-6.66,4.28-11,12.57-3.36,6.33-5.79,17.7-6.76,22.71a15.84,15.84,0,0,0-3-.62l-.72-.05s4-14.7,8-22.76S133,143.91,133,143.91c-1.61-.67-2.32-1.28-3.59-1.74a30.93,30.93,0,0,1,3.24-3c3.25,1.79,5.4,3,4.45,4.52"/></clipPath><filter id="luminosity-noclip" x="104.75" y="-8362.78" width="44.06" height="32766" filterUnits="userSpaceOnUse" color-interpolation-filters="sRGB"><feFlood flood-color="#fff" result="bg"/><feBlend in="SourceGraphic" in2="bg"/></filter><mask id="mask" x="104.75" y="-8362.78" width="44.06" height="32766" maskUnits="userSpaceOnUse"><g class="cls-140"/></mask><linearGradient id="Degradado_sin_nombre_65" x1="-844.79" y1="714.49" x2="-842.34" y2="714.49" gradientTransform="matrix(-4.2, 15.84, 15.84, 4.2, -14735.18, 10523.76)" gradientUnits="userSpaceOnUse"><stop offset="0" stop-color="#fff"/><stop offset="0.45" stop-color="#fff"/><stop offset="0.98" stop-color="#c6c5c5"/><stop offset="1" stop-color="#c6c5c5"/></linearGradient><clipPath id="clip-path-3"><rect class="cls-2" x="142.62" y="123.82" width="35.45" height="8.99"/></clipPath><clipPath id="clip-path-4"><path class="cls-2" d="M178,125.39l.11,1.54c-12.94,4.28-22.26,6.93-27.75,5.49a10.51,10.51,0,0,1-7.7-7.63s.95-.36,2.21-1c.95,2.26,2.95,5.78,8.95,6.25,5.55.44,19.43-3.33,24.18-4.68"/></clipPath><filter id="luminosity-noclip-2" x="139.42" y="-8362.78" width="41.86" height="32766" filterUnits="userSpaceOnUse" color-interpolation-filters="sRGB"><feFlood flood-color="#fff" result="bg"/><feBlend in="SourceGraphic" in2="bg"/></filter><mask id="mask-2" x="139.42" y="-8362.78" width="41.86" height="32766" maskUnits="userSpaceOnUse"><g class="cls-139"/></mask><linearGradient id="Degradado_sin_nombre_65-2" x1="-830.47" y1="730.42" x2="-827.83" y2="730.42" gradientTransform="matrix(8.99, 2.9, 2.9, -8.99, 5495.17, 9093.69)" xlink:href="#Degradado_sin_nombre_65"/><clipPath id="clip-path-5"><rect class="cls-2" x="177.9" y="121.66" width="8.19" height="5.48"/></clipPath><clipPath id="clip-path-6"><path class="cls-2" d="M186.06,123.35a6.2,6.2,0,0,1-.78,3.39.79.79,0,0,1-.46.14c-1,0,1-1.92.49-2.83s-1.41-.4-2.2.63-4.52,3.13-5,2.25a12.61,12.61,0,0,1-.17-1.51c1.81-.5,4.5-1.45,5.48-2.93,1.07-1.64,2.5-.58,2.68.86"/></clipPath><filter id="luminosity-noclip-3" x="177.89" y="-8362.78" width="8.28" height="32766" filterUnits="userSpaceOnUse" color-interpolation-filters="sRGB"><feFlood flood-color="#fff" result="bg"/><feBlend in="SourceGraphic" in2="bg"/></filter><mask id="mask-3" x="177.89" y="-8362.78" width="8.28" height="32766" maskUnits="userSpaceOnUse"><g class="cls-138"/></mask><linearGradient id="Degradado_sin_nombre_66" x1="-816" y1="737.81" x2="-813.37" y2="737.81" gradientTransform="matrix(5.95, 0, 0, -5.95, 5028.57, 4512.19)" gradientUnits="userSpaceOnUse"><stop offset="0" stop-color="#fff"/><stop offset="0.99" stop-color="#868686"/><stop offset="1" stop-color="#868686"/></linearGradient><clipPath id="clip-path-7"><path class="cls-2" d="M113,162.12c-.14,1.26-.87,7.86-1.64,15.58-.85,8.6-4.61,30.85-4.61,30.85a7,7,0,0,0-1.52,0c.52-4.34,1.9-15.9,2.59-22.57a100.5,100.5,0,0,0-.7-24.91c3,.68,5.88,1.08,5.88,1.08"/></clipPath><filter id="luminosity-noclip-4" x="81.38" y="-8362.78" width="55.4" height="32766" filterUnits="userSpaceOnUse" color-interpolation-filters="sRGB"><feFlood flood-color="#fff" result="bg"/><feBlend in="SourceGraphic" in2="bg"/></filter><mask id="mask-4" x="81.38" y="-8362.78" width="55.4" height="32766" maskUnits="userSpaceOnUse"><g class="cls-137"/></mask><linearGradient id="Degradado_sin_nombre_65-3" x1="-840.19" y1="711.61" x2="-837.64" y2="711.61" gradientTransform="matrix(-18.25, 27.89, 27.89, 18.25, -35031.64, 10576.65)" xlink:href="#Degradado_sin_nombre_65"/><clipPath id="clip-path-8"><rect class="cls-2" x="106.77" y="116.18" width="9.47" height="45.94"/></clipPath><clipPath id="clip-path-9"><path class="cls-2" d="M116.24,117.06c-.17,2.81-1,15.92-1.17,21.33,0,.5,0,1,0,1.31,0,3.37-1.12,13.7-1.7,19.08-.17,1.53-.29,2.65-.35,3.1,0,.15,0,.24,0,.24s-2.6-.36-5.51-1l-.35-.08a56.67,56.67,0,0,1,.57-16.34c1.28-6.9,3.31-21.15,2.59-28.52a34.49,34.49,0,0,0,4.94.8l1,.09"/></clipPath><filter id="luminosity-noclip-5" x="102.59" y="-8362.78" width="17.49" height="32766" filterUnits="userSpaceOnUse" color-interpolation-filters="sRGB"><feFlood flood-color="#fff" result="bg"/><feBlend in="SourceGraphic" in2="bg"/></filter><mask id="mask-5" x="102.59" y="-8362.78" width="17.49" height="32766" maskUnits="userSpaceOnUse"><g class="cls-136"/></mask><linearGradient id="Degradado_sin_nombre_66-2" x1="-844.23" y1="715.25" x2="-841.82" y2="715.25" gradientTransform="matrix(-1.33, 17.42, 17.42, 1.33, -13469.57, 13864.79)" xlink:href="#Degradado_sin_nombre_66"/><clipPath id="clip-path-10"><rect class="cls-2" x="105.33" y="208.45" width="9.69" height="3.77"/></clipPath><clipPath id="clip-path-11"><path class="cls-2" d="M114.89,210.06c-.41.24-2.61,1.15-5.12,2.16-2.1-1.72-4.12-1.92-4.44-3.72,4.33-.32,10.62,1,9.56,1.56"/></clipPath><filter id="luminosity-noclip-6" x="103.3" y="-8362.78" width="14.67" height="32766" filterUnits="userSpaceOnUse" color-interpolation-filters="sRGB"><feFlood flood-color="#fff" result="bg"/><feBlend in="SourceGraphic" in2="bg"/></filter><mask id="mask-6" x="103.3" y="-8362.78" width="14.67" height="32766" maskUnits="userSpaceOnUse"><g class="cls-135"/></mask><linearGradient id="Degradado_sin_nombre_69" x1="-871.2" y1="712.61" x2="-868.61" y2="712.61" gradientTransform="matrix(-1.98, 3.03, 3.03, 1.98, -3770.54, 1430.56)" gradientUnits="userSpaceOnUse"><stop offset="0" stop-color="#9c9c9a"/><stop offset="0.99" stop-color="#fff"/><stop offset="1" stop-color="#fff"/></linearGradient><clipPath id="clip-path-12"><rect class="cls-2" x="113.23" y="178.29" width="4.77" height="6.68"/></clipPath><clipPath id="clip-path-13"><path class="cls-2" d="M118,178.62a19,19,0,0,0-2.39,6.34c-1.36-.05-2.25-.14-2.25-.14-.56-1.65.81-5.12,2.22-6.53a5.7,5.7,0,0,1,.73,0,13.25,13.25,0,0,1,1.69.29"/></clipPath><filter id="luminosity-noclip-7" x="109.45" y="-8362.78" width="11.9" height="32766" filterUnits="userSpaceOnUse" color-interpolation-filters="sRGB"><feFlood flood-color="#fff" result="bg"/><feBlend in="SourceGraphic" in2="bg"/></filter><mask id="mask-7" x="109.45" y="-8362.78" width="11.9" height="32766" maskUnits="userSpaceOnUse"><g class="cls-134"/></mask><linearGradient id="Degradado_sin_nombre_69-2" x1="-860.37" y1="711.08" x2="-857.81" y2="711.08" gradientTransform="matrix(-3.21, 4.91, 4.91, 3.21, -6128.79, 2110.33)" xlink:href="#Degradado_sin_nombre_69"/><clipPath id="clip-path-14"><path class="cls-2" d="M162.41,88c-1,.41-1.83.75-2.54,1a19.84,19.84,0,0,1-4.66-1.8l.95-.78s1.89.62,3.93,1.07l2.32.49"/></clipPath><filter id="luminosity-noclip-8" x="153.96" y="-8362.78" width="9.69" height="32766" filterUnits="userSpaceOnUse" color-interpolation-filters="sRGB"><feFlood flood-color="#fff" result="bg"/><feBlend in="SourceGraphic" in2="bg"/></filter><mask id="mask-8" x="153.96" y="-8362.78" width="9.69" height="32766" maskUnits="userSpaceOnUse"><g class="cls-133"/></mask><linearGradient id="Degradado_sin_nombre_69-3" x1="-836.68" y1="795.96" x2="-834.03" y2="795.96" gradientTransform="matrix(2.07, 1.24, 1.24, -2.07, 900.54, 2777.01)" xlink:href="#Degradado_sin_nombre_69"/><clipPath id="clip-path-15"><path class="cls-2" d="M156.16,86.41a7.46,7.46,0,0,0-2.2,2.87,25.71,25.71,0,0,1-2.86-3.58,5.56,5.56,0,0,1,.41-1.06,41.35,41.35,0,0,0,4.43,1.7l.22.07"/></clipPath><filter id="luminosity-noclip-9" x="151.09" y="-8362.78" width="5.07" height="32766" filterUnits="userSpaceOnUse" color-interpolation-filters="sRGB"><feFlood flood-color="#fff" result="bg"/><feBlend in="SourceGraphic" in2="bg"/></filter><mask id="mask-9" x="151.09" y="-8362.78" width="5.07" height="32766" maskUnits="userSpaceOnUse"><g class="cls-132"/></mask><linearGradient id="Degradado_sin_nombre_66-3" x1="-808.69" y1="759.85" x2="-806.07" y2="759.85" gradientTransform="matrix(3.67, 0, 0, -3.67, 3121.12, 2878.86)" xlink:href="#Degradado_sin_nombre_66"/><clipPath id="clip-path-16"><path class="cls-2" d="M140.59,101.59s.43,9.9,1.95,15.71a37.22,37.22,0,0,0,2.32,6.51c-1.27.62-2.24,1-2.24,1-.29-.77-.59-1.69-.85-2.62-.69-2.34-1.23-4.73-1.23-4.73s-17.25-.07-23.19-.32l-.83-.05h-.28l-1-.09a37.93,37.93,0,0,1-5.18-.84l.2,0c5.56-.84,8.6-1.79,15.09-2.61s13.93-2.17,13.93-2.17-.83-7.33,1.34-9.73"/></clipPath><filter id="luminosity-noclip-10" x="98.4" y="-8362.78" width="58.09" height="32766" filterUnits="userSpaceOnUse" color-interpolation-filters="sRGB"><feFlood flood-color="#fff" result="bg"/><feBlend in="SourceGraphic" in2="bg"/></filter><mask id="mask-10" x="98.4" y="-8362.78" width="58.09" height="32766" maskUnits="userSpaceOnUse"><g class="cls-131"/></mask><linearGradient id="Degradado_sin_nombre_69-4" x1="-844.54" y1="710.79" x2="-841.96" y2="710.79" gradientTransform="matrix(-11.73, 17.93, 17.93, 11.73, -22499.71, 6878.99)" xlink:href="#Degradado_sin_nombre_69"/><clipPath id="clip-path-17"><rect class="cls-2" x="143.39" y="78.71" width="27.39" height="9.91"/></clipPath><clipPath id="clip-path-18"><path class="cls-2" d="M170.49,82.89c.91,3.09-.48,5.7-2.5,5.73a18.75,18.75,0,0,1-2.32-.15,54.87,54.87,0,0,1-9.51-2.06l-.21-.07a38.07,38.07,0,0,1-4.44-1.7c-.59-.27-1.18-.55-1.72-.85-3.49-1.88-6.48-4-6.4-5.08a26.38,26.38,0,0,0,14.84,6.77c5,.52,10.11-.27,12.26-2.59"/></clipPath><filter id="luminosity-noclip-11" x="138.52" y="-8362.78" width="37.67" height="32766" filterUnits="userSpaceOnUse" color-interpolation-filters="sRGB"><feFlood flood-color="#fff" result="bg"/><feBlend in="SourceGraphic" in2="bg"/></filter><mask id="mask-11" x="138.52" y="-8362.78" width="37.67" height="32766" maskUnits="userSpaceOnUse"><g class="cls-130"/></mask><linearGradient id="Degradado_sin_nombre_69-5" x1="-835.75" y1="731.94" x2="-833.11" y2="731.94" gradientTransform="matrix(8.69, 5.22, 5.22, -8.69, 3594.45, 10803.48)" xlink:href="#Degradado_sin_nombre_69"/><clipPath id="clip-path-19"><path class="cls-2" d="M132.55,139.42l-3.18,2.75-4.75-2c-3.32-1.44-7.52-3.24-9.46-4.13.07-2,.21-4.8.37-7.61a125.23,125.23,0,0,0,17,11"/></clipPath><filter id="luminosity-noclip-12" x="108.1" y="-8362.78" width="31.51" height="32766" filterUnits="userSpaceOnUse" color-interpolation-filters="sRGB"><feFlood flood-color="#fff" result="bg"/><feBlend in="SourceGraphic" in2="bg"/></filter><mask id="mask-12" x="108.1" y="-8362.78" width="31.51" height="32766" maskUnits="userSpaceOnUse"><g class="cls-129"/></mask><linearGradient id="Degradado_sin_nombre_66-4" x1="-837.98" y1="733.08" x2="-835.32" y2="733.08" gradientTransform="matrix(6.48, 4.53, 4.53, -6.48, 2223.09, 8673.27)" xlink:href="#Degradado_sin_nombre_66"/><clipPath id="clip-path-20"><path class="cls-2" d="M119.37,182.6l-4.79,13.3a.85.85,0,0,0,.6,1.1,1.07,1.07,0,0,0,.73-.05.91.91,0,0,0,.49-.51l4.79-13.3a.86.86,0,0,0-.61-1.1,1,1,0,0,0-.3,0,1,1,0,0,0-.91.6"/></clipPath><linearGradient id="Degradado_sin_nombre_72" x1="-810.67" y1="726.64" x2="-807.97" y2="726.64" gradientTransform="matrix(4.31, -2.11, -2.11, -4.31, 5146.16, 1613.61)" gradientUnits="userSpaceOnUse"><stop offset="0" stop-color="#2a295a"/><stop offset="0.98" stop-color="#243469"/><stop offset="1" stop-color="#243469"/></linearGradient><clipPath id="clip-path-21"><path class="cls-2" d="M83.49,123.65c1.12,3.2,6,2.58,11,2.86s3.78-2.12,1-2.78a51.71,51.71,0,0,0-9.27-1.17c-1.8,0-3,.28-2.76,1.09"/></clipPath><linearGradient id="Degradado_sin_nombre_72-2" x1="-823.17" y1="723.17" x2="-820.53" y2="723.17" gradientTransform="matrix(8.86, -4.34, -4.34, -8.86, 10519.11, 2964.59)" xlink:href="#Degradado_sin_nombre_72"/><clipPath id="clip-path-22"><path class="cls-2" d="M176.52,188.42a3.72,3.72,0,1,0,3.76-4.14h0a4,4,0,0,0-3.72,4.14"/></clipPath><linearGradient id="Degradado_sin_nombre_75" x1="-868.14" y1="745.78" x2="-865.73" y2="745.78" gradientTransform="matrix(0.11, 3.48, 3.48, -0.11, -2322.57, 3291.83)" gradientUnits="userSpaceOnUse"><stop offset="0" stop-color="#8180b3"/><stop offset="0" stop-color="#8180b3"/><stop offset="0.97" stop-color="#726ba6"/><stop offset="1" stop-color="#726ba6"/></linearGradient><clipPath id="clip-path-23"><path class="cls-2" d="M90,125.22a.87.87,0,0,0-.6,1.11l26,70.64a.91.91,0,0,0,.71.57,1,1,0,0,0,.62-.06,1.06,1.06,0,0,0,.27-.18l48.47-46.87a.82.82,0,0,0,0-1.24,1,1,0,0,0-1.36,0L116.78,195,91.26,125.77a1,1,0,0,0-.91-.6,1.18,1.18,0,0,0-.31,0"/></clipPath><linearGradient id="Degradado_sin_nombre_72-3" x1="-838.25" y1="716.07" x2="-835.7" y2="716.07" gradientTransform="matrix(15.04, 27.44, 27.44, -15.04, -6937.5, 33887.78)" xlink:href="#Degradado_sin_nombre_72"/><clipPath id="clip-path-24"><path class="cls-2" d="M177,213.6c-.52,0-1-.07-1.57-.14a24.71,24.71,0,0,1-17-10,26.76,26.76,0,0,1-5.11-13.23,28.68,28.68,0,0,1,.14-7c.1-.66.23-1.31.36-2a28.55,28.55,0,0,1,16-20,25.2,25.2,0,0,1,17.86-1.15,24.62,24.62,0,0,1,9.25,5.27,25.58,25.58,0,0,1,3.41,3.77,27.24,27.24,0,0,1,5,20.27,28.62,28.62,0,0,1-16.32,21.91l-.41.16a25.76,25.76,0,0,1-10.12,2.09c-.47,0-.94,0-1.41,0m-11-59.34A36.58,36.58,0,0,0,144.9,182.2a34.58,34.58,0,0,0,6.38,25.72,33.32,33.32,0,0,0,23,13.35,34.87,34.87,0,0,0,18.42-2.82,36.55,36.55,0,0,0,21.07-27.94,34.57,34.57,0,0,0-6.37-25.72,33.88,33.88,0,0,0-27.15-13.6A34.91,34.91,0,0,0,166,154.26"/></clipPath><linearGradient id="Degradado_sin_nombre_72-4" x1="-835.39" y1="713.04" x2="-832.84" y2="713.04" gradientTransform="matrix(59.92, 109.31, 109.31, -59.92, -27728.75, 134187.32)" xlink:href="#Degradado_sin_nombre_72"/><clipPath id="clip-path-25"><path class="cls-2" d="M136,136.47c-1.37,1.08-2.46,2-3.35,2.71a30.93,30.93,0,0,0-3.24,3c1.27.46,2,1.07,3.59,1.74,0,0-5.42,3.58-9.43,11.64s-8,22.76-8,22.76l.73.05a15.84,15.84,0,0,1,3,.62c.56.18,1.2.39,1.89.65l.42.15c2.29-2,15.85-14.08,21.81-22,6.52-8.7,9.62-17.2,9.14-18.57s-6.2-6.9-8.7-8.54c0,0-2.54,1.71-7.85,5.84"/></clipPath><linearGradient id="Degradado_sin_nombre_68" x1="-827.42" y1="710.79" x2="-824.9" y2="710.79" gradientTransform="matrix(8.34, -17.52, -17.52, -8.34, 19478.59, -8384.09)" gradientUnits="userSpaceOnUse"><stop offset="0" stop-color="#f4a684"/><stop offset="0.38" stop-color="#f7b794"/><stop offset="0.99" stop-color="#f8c3ad"/><stop offset="1" stop-color="#f8c3ad"/></linearGradient><filter id="luminosity-noclip-13" x="104.75" y="134.09" width="44.06" height="49.98" filterUnits="userSpaceOnUse" color-interpolation-filters="sRGB"><feFlood flood-color="#fff" result="bg"/><feBlend in="SourceGraphic" in2="bg"/></filter><mask id="mask-13" x="104.75" y="134.09" width="44.06" height="49.98" maskUnits="userSpaceOnUse"><g class="cls-1"><g class="cls-3"><g class="cls-4"><g class="cls-5"><polygon class="cls-6" points="148.8 141.79 136.55 184.07 104.75 176.37 117 134.09 148.8 141.79"/></g></g></g></g></mask><clipPath id="clip-path-26"><rect class="cls-2" x="115.52" y="139.18" width="21.77" height="39.8"/></clipPath><clipPath id="clip-path-27"><path class="cls-2" d="M137.07,143.7c-1,1.58-6.66,4.28-11,12.57-3.36,6.33-5.79,17.7-6.76,22.71a15.84,15.84,0,0,0-3-.62l-.72-.05s4-14.7,8-22.76S133,143.91,133,143.91c-1.61-.67-2.32-1.28-3.59-1.74a30.93,30.93,0,0,1,3.24-3c3.25,1.79,5.4,3,4.45,4.52"/></clipPath><linearGradient id="Degradado_sin_nombre_64" x1="-844.79" y1="714.49" x2="-842.34" y2="714.49" gradientTransform="matrix(-4.2, 15.84, 15.84, 4.2, -14735.18, 10523.76)" gradientUnits="userSpaceOnUse"><stop offset="0" stop-color="#f4a684"/><stop offset="0.45" stop-color="#f7b794"/><stop offset="0.98" stop-color="#f8c3ad"/><stop offset="1" stop-color="#f8c3ad"/></linearGradient><filter id="luminosity-noclip-14" x="109.45" y="176.1" width="11.9" height="11.04" filterUnits="userSpaceOnUse" color-interpolation-filters="sRGB"><feFlood flood-color="#fff" result="bg"/><feBlend in="SourceGraphic" in2="bg"/></filter><mask id="mask-14" x="109.45" y="176.1" width="11.9" height="11.04" maskUnits="userSpaceOnUse"><g class="cls-27"><g class="cls-3"><g class="cls-28"><g class="cls-29"><polygon class="cls-30" points="121.35 180.28 116.44 187.14 109.45 182.96 114.36 176.1 121.35 180.28"/></g></g></g></g></mask><clipPath id="clip-path-28"><rect class="cls-2" x="113.23" y="178.29" width="4.77" height="6.68"/></clipPath><filter id="luminosity-noclip-15" x="98.4" y="87" width="58.09" height="52.38" filterUnits="userSpaceOnUse" color-interpolation-filters="sRGB"><feFlood flood-color="#fff" result="bg"/><feBlend in="SourceGraphic" in2="bg"/></filter><mask id="mask-15" x="98.4" y="87" width="58.09" height="52.38" maskUnits="userSpaceOnUse"><g class="cls-39"><g class="cls-40"><g class="cls-41"><polygon class="cls-42" points="156.49 108.54 134.42 139.38 98.4 117.84 120.47 87 156.49 108.54"/></g></g></g></mask><clipPath id="clip-path-29"><rect class="cls-2" x="110.03" y="101.59" width="34.83" height="23.2"/></clipPath><clipPath id="clip-path-30"><path class="cls-2" d="M152.31,94.34a7.44,7.44,0,0,0,2.37,3.88c.86.75,2.65.38,4.46-.56l.42-.21a14.36,14.36,0,0,0,2.76-2l2.94.14a11.76,11.76,0,0,1-.44-3.69,8.12,8.12,0,0,1,.75-3.25,1.65,1.65,0,0,1,.1-.19,53.77,53.77,0,0,1-9.51-2.06c-2.59,1.82-3.71,7.24-3.85,7.93"/></clipPath><linearGradient id="Degradado_sin_nombre_68-2" x1="-807.57" y1="704.31" x2="-805.09" y2="704.31" gradientTransform="matrix(1.84, -6.68, -6.68, -1.84, 6351.45, -3994.4)" xlink:href="#Degradado_sin_nombre_68"/><filter id="luminosity-noclip-16" x="138.52" y="67.38" width="37.67" height="32.58" filterUnits="userSpaceOnUse" color-interpolation-filters="sRGB"><feFlood flood-color="#fff" result="bg"/><feBlend in="SourceGraphic" in2="bg"/></filter><mask id="mask-16" x="138.52" y="67.38" width="37.67" height="32.58" maskUnits="userSpaceOnUse"><g class="cls-43"><g class="cls-3"><g class="cls-44"><g class="cls-45"><polygon class="cls-46" points="150.75 67.38 176.19 81.34 163.96 99.96 138.52 86 150.75 67.38"/></g></g></g></g></mask><clipPath id="clip-path-31"><rect class="cls-2" x="143.39" y="78.71" width="27.39" height="9.91"/></clipPath><filter id="luminosity-noclip-17" x="108.1" y="120.96" width="31.51" height="28.67" filterUnits="userSpaceOnUse" color-interpolation-filters="sRGB"><feFlood flood-color="#fff" result="bg"/><feBlend in="SourceGraphic" in2="bg"/></filter><mask id="mask-17" x="108.1" y="120.96" width="31.51" height="28.67" maskUnits="userSpaceOnUse"><g class="cls-47"><g class="cls-48"><g class="cls-49"><polygon class="cls-50" points="120.87 120.96 139.61 132.93 126.84 149.63 108.1 137.65 120.87 120.96"/></g></g></g></mask><clipPath id="clip-path-32"><rect class="cls-2" x="115.16" y="128.42" width="17.38" height="13.75"/></clipPath><clipPath id="clip-path-33"><path class="cls-2" d="M132.55,139.42l-3.18,2.75-4.75-2c-3.32-1.44-7.52-3.24-9.46-4.13.07-2,.21-4.8.37-7.61a125.23,125.23,0,0,0,17,11"/></clipPath><linearGradient id="Degradado_sin_nombre_35" x1="-837.98" y1="733.08" x2="-835.32" y2="733.08" gradientTransform="matrix(6.48, 4.53, 4.53, -6.48, 2223.09, 8673.27)" gradientUnits="userSpaceOnUse"><stop offset="0" stop-color="#c12e28"/><stop offset="0.99" stop-color="#ed7059"/><stop offset="1" stop-color="#ed7059"/></linearGradient><clipPath id="clip-path-34"><path class="cls-2" d="M41,199.34c-2.82,19.51,10.28,37.18,29.26,39.47s36.65-11.67,39.47-31.18S99.4,170.46,80.42,168.17a33.13,33.13,0,0,0-4.09-.25C59,167.92,43.57,181.25,41,199.34"/></clipPath><linearGradient id="Degradado_sin_nombre_72-5" x1="-838.05" y1="715.12" x2="-835.51" y2="715.12" gradientTransform="matrix(13.73, 25.06, 25.06, -13.73, -6350.3, 30990.85)" xlink:href="#Degradado_sin_nombre_72"/><clipPath id="clip-path-35"><path class="cls-2" d="M178.76,188.07c-3.63,4.25-18.67-2.72-25-6.8-.13.65-.26,1.3-.36,2a28.68,28.68,0,0,0-.14,7c7.66,6.5,18.89,5.73,22.21,5.1,3.77-.71,6.77,1.18,6.93,7.28.11,4-3.17,8.4-5.44,10.95a25.51,25.51,0,0,0,11.53-2c5.12-6.4,3.41-15.34-5.33-21.24-2.71-1.83.37-2.29,3.67-12.46a22.09,22.09,0,0,1,10-12.41,24.62,24.62,0,0,0-9.25-5.27c-12.1,9.81-4.77,23.1-8.86,27.9"/></clipPath><linearGradient id="Degradado_sin_nombre_72-6" x1="-837.92" y1="719.5" x2="-835.38" y2="719.5" gradientTransform="matrix(9.52, 17.36, 17.36, -9.52, -4352.41, 21566.97)" xlink:href="#Degradado_sin_nombre_72"/><clipPath id="clip-path-36"><path class="cls-2" d="M182.76,123.86,159,132.15a.84.84,0,0,0-.57,1.09L179.25,191a1,1,0,0,0,1.21.56l.13,0a.86.86,0,0,0,.48-1.07l-20.51-56.93,22.22-7.75c.68.88,1.58,2.43,1.13,3.54s-2.16,1.52-3.52,1.72a.88.88,0,0,0-.79,1,.93.93,0,0,0,1.08.72c2.72-.38,4.41-1.33,5-2.83,1-2.55-1.58-5.45-1.87-5.77a1,1,0,0,0-.73-.31,1,1,0,0,0-.35.06"/></clipPath><linearGradient id="Degradado_sin_nombre_72-7" x1="-838.06" y1="717.97" x2="-835.53" y2="717.97" gradientTransform="matrix(12.31, 22.46, 22.46, -12.31, -5650.41, 27796.84)" xlink:href="#Degradado_sin_nombre_72"/><clipPath id="clip-path-37"><path class="cls-2" d="M72.85,203.62a3.51,3.51,0,1,0,3.55-3.9h0a3.76,3.76,0,0,0-3.51,3.9"/></clipPath><linearGradient id="Degradado_sin_nombre_75-2" x1="-868.04" y1="728.19" x2="-865.63" y2="728.19" gradientTransform="matrix(0.1, 3.29, 3.29, -0.1, -2225.99, 3127.96)" xlink:href="#Degradado_sin_nombre_75"/><clipPath id="clip-path-38"><path class="cls-2" d="M113.32,189c-4.23,1.9-6,6.59-3.91,10.46A9,9,0,0,0,120.86,203c4.24-1.91,6-6.59,3.91-10.47a8.66,8.66,0,0,0-7.69-4.38,9.28,9.28,0,0,0-3.76.8"/></clipPath><linearGradient id="Degradado_sin_nombre_75-3" x1="-845.2" y1="730.28" x2="-842.65" y2="730.28" gradientTransform="matrix(3.13, 5.71, 5.71, -3.13, -1412.28, 7303.55)" xlink:href="#Degradado_sin_nombre_75"/><clipPath id="clip-path-39"><path class="cls-2" d="M148.3,121.82a21.64,21.64,0,0,1-3.47,2c-1.26.61-2.21,1-2.21,1a10.51,10.51,0,0,0,7.7,7.63c5.49,1.44,14.81-1.21,27.75-5.49l-.11-1.54-.38-5.06s-9.89,1.67-15,1.84-9.16-1-9.45-4.47a47.4,47.4,0,0,1-4.84,4.12"/></clipPath><linearGradient id="Degradado_sin_nombre_68-3" x1="-829.64" y1="715.16" x2="-826.98" y2="715.16" gradientTransform="matrix(24.66, -12.08, -12.08, -24.66, 29228.76, 7747.96)" xlink:href="#Degradado_sin_nombre_68"/><filter id="luminosity-noclip-18" x="139.42" y="114.37" width="41.86" height="28.95" filterUnits="userSpaceOnUse" color-interpolation-filters="sRGB"><feFlood flood-color="#fff" result="bg"/><feBlend in="SourceGraphic" in2="bg"/></filter><mask id="mask-18" x="139.42" y="114.37" width="41.86" height="28.95" maskUnits="userSpaceOnUse"><g class="cls-7"><g class="cls-3"><g class="cls-8"><g class="cls-9"><polygon class="cls-10" points="145.95 114.36 181.28 124.76 174.74 143.31 139.42 132.91 145.95 114.36"/></g></g></g></g></mask><clipPath id="clip-path-40"><rect class="cls-2" x="142.62" y="123.82" width="35.45" height="8.99"/></clipPath><clipPath id="clip-path-41"><path class="cls-2" d="M178,125.39l.11,1.54c-12.94,4.28-22.26,6.93-27.75,5.49a10.51,10.51,0,0,1-7.7-7.63s.95-.36,2.21-1c.95,2.26,2.95,5.78,8.95,6.25,5.55.44,19.43-3.33,24.18-4.68"/></clipPath><linearGradient id="Degradado_sin_nombre_64-2" x1="-830.47" y1="730.42" x2="-827.83" y2="730.42" gradientTransform="matrix(8.99, 2.9, 2.9, -8.99, 5495.17, 9093.69)" xlink:href="#Degradado_sin_nombre_64"/><filter id="luminosity-noclip-19" x="177.89" y="120.84" width="8.28" height="6.98" filterUnits="userSpaceOnUse" color-interpolation-filters="sRGB"><feFlood flood-color="#fff" result="bg"/><feBlend in="SourceGraphic" in2="bg"/></filter><mask id="mask-19" x="177.89" y="120.84" width="8.28" height="6.98" maskUnits="userSpaceOnUse"><g class="cls-11"><g class="cls-3"><g class="cls-12"><g class="cls-13"><rect class="cls-14" x="177.89" y="120.85" width="8.27" height="6.97" transform="translate(-0.13 0.19) rotate(-0.06)"/></g></g></g></g></mask><clipPath id="clip-path-42"><rect class="cls-2" x="177.9" y="121.66" width="8.19" height="5.48"/></clipPath><clipPath id="clip-path-43"><path class="cls-2" d="M186.06,123.35a6.2,6.2,0,0,1-.78,3.39.79.79,0,0,1-.46.14c-1,0,1-1.92.49-2.83s-1.41-.4-2.2.63-4.52,3.13-5,2.25a12.61,12.61,0,0,1-.17-1.51c1.81-.5,4.5-1.45,5.48-2.93,1.07-1.64,2.5-.58,2.68.86"/></clipPath><linearGradient id="Degradado_sin_nombre_35-2" x1="-816" y1="737.81" x2="-813.37" y2="737.81" gradientTransform="matrix(5.95, 0, 0, -5.95, 5028.61, 4512.15)" xlink:href="#Degradado_sin_nombre_35"/><clipPath id="clip-path-44"><path class="cls-2" d="M114,196.67l-6.82,17.2a.86.86,0,0,0,.57,1.12,1,1,0,0,0,.76,0,.88.88,0,0,0,.47-.48l6.82-17.2a.85.85,0,0,0-.58-1.12,1,1,0,0,0-1.22.52"/></clipPath><linearGradient id="Degradado_sin_nombre_72-8" x1="-817.55" y1="722.2" x2="-814.85" y2="722.2" gradientTransform="matrix(5.58, -2.73, -2.73, -5.58, 6635.71, 2002.35)" xlink:href="#Degradado_sin_nombre_72"/><clipPath id="clip-path-45"><polygon class="cls-2" points="103.72 214.64 104.75 216.56 112.25 213.2 111.37 211.56 103.72 214.64"/></clipPath><linearGradient id="Degradado_sin_nombre_72-9" x1="-801.57" y1="731.04" x2="-798.91" y2="731.04" gradientTransform="matrix(2.85, -1.4, -1.4, -2.85, 3413.65, 1181.08)" xlink:href="#Degradado_sin_nombre_72"/><clipPath id="clip-path-46"><path class="cls-2" d="M116.87,185l-.42,1.48s4.27-.05,6.14-.32l-.13-1.28s-3.86.19-5.59.12"/></clipPath><linearGradient id="Degradado_sin_nombre_72-10" x1="-783.76" y1="742.85" x2="-781.11" y2="742.85" gradientTransform="matrix(2.11, -1.03, -1.03, -2.11, 2538.02, 943.98)" xlink:href="#Degradado_sin_nombre_72"/><clipPath id="clip-path-47"><path class="cls-2" d="M95.09,167c-2.44,18.67,4.25,43.07,4.25,43.07a20.52,20.52,0,0,1,5.86-1.57,7,7,0,0,1,1.52,0s3.76-22.25,4.61-30.85c.77-7.72,1.5-14.32,1.64-15.58,0,0-2.83-.4-5.88-1.08a36.29,36.29,0,0,1-4.29-1.24,66.15,66.15,0,0,1-8.36-4.05A37.69,37.69,0,0,1,95.09,167"/></clipPath><linearGradient id="Degradado_sin_nombre_68-4" x1="-841.5" y1="715.26" x2="-839.1" y2="715.26" gradientTransform="matrix(0.41, 19.77, 19.77, -0.41, -13690.25, 17088.45)" xlink:href="#Degradado_sin_nombre_68"/><filter id="luminosity-noclip-20" x="81.38" y="157.78" width="55.4" height="54.02" filterUnits="userSpaceOnUse" color-interpolation-filters="sRGB"><feFlood flood-color="#fff" result="bg"/><feBlend in="SourceGraphic" in2="bg"/></filter><mask id="mask-20" x="81.38" y="157.78" width="55.4" height="54.02" maskUnits="userSpaceOnUse"><g class="cls-15"><g class="cls-16"><g class="cls-17"><polygon class="cls-18" points="136.79 175.28 110.64 211.81 81.38 194.31 107.53 157.78 136.79 175.28"/></g></g></g></mask><clipPath id="clip-path-48"><rect class="cls-2" x="105.2" y="161.04" width="7.77" height="47.52"/></clipPath><clipPath id="clip-path-49"><path class="cls-2" d="M113,162.12c-.14,1.26-.87,7.86-1.64,15.58-.85,8.6-4.61,30.85-4.61,30.85a7,7,0,0,0-1.52,0c.52-4.34,1.9-15.9,2.59-22.57a100.5,100.5,0,0,0-.7-24.91c3,.68,5.88,1.08,5.88,1.08"/></clipPath><linearGradient id="Degradado_sin_nombre_64-3" x1="-840.19" y1="711.61" x2="-837.64" y2="711.61" gradientTransform="matrix(-18.25, 27.89, 27.89, 18.25, -35031.64, 10576.65)" xlink:href="#Degradado_sin_nombre_64"/><filter id="luminosity-noclip-21" x="102.59" y="115.49" width="17.49" height="47.31" filterUnits="userSpaceOnUse" color-interpolation-filters="sRGB"><feFlood flood-color="#fff" result="bg"/><feBlend in="SourceGraphic" in2="bg"/></filter><mask id="mask-21" x="102.59" y="115.49" width="17.49" height="47.31" maskUnits="userSpaceOnUse"><g class="cls-19"><g class="cls-3"><g class="cls-20"><g class="cls-21"><polygon class="cls-22" points="120.07 116.44 116.19 162.8 102.59 161.85 106.47 115.49 120.07 116.44"/></g></g></g></g></mask><clipPath id="clip-path-50"><rect class="cls-2" x="106.77" y="116.18" width="9.47" height="45.94"/></clipPath><clipPath id="clip-path-51"><path class="cls-2" d="M116.24,117.06c-.17,2.81-1,15.92-1.17,21.33,0,.5,0,1,0,1.31,0,3.37-1.12,13.7-1.7,19.08-.17,1.53-.29,2.65-.35,3.1,0,.15,0,.24,0,.24s-2.6-.36-5.51-1l-.35-.08a56.67,56.67,0,0,1,.57-16.34c1.28-6.9,3.31-21.15,2.59-28.52a34.49,34.49,0,0,0,4.94.8l1,.09"/></clipPath><linearGradient id="Degradado_sin_nombre_35-3" x1="-844.23" y1="715.25" x2="-841.82" y2="715.25" gradientTransform="matrix(-1.33, 17.42, 17.42, 1.33, -13469.57, 13864.79)" xlink:href="#Degradado_sin_nombre_35"/><filter id="luminosity-noclip-22" x="103.3" y="203.74" width="14.67" height="12.93" filterUnits="userSpaceOnUse" color-interpolation-filters="sRGB"><feFlood flood-color="#fff" result="bg"/><feBlend in="SourceGraphic" in2="bg"/></filter><mask id="mask-22" x="103.3" y="203.74" width="14.67" height="12.93" maskUnits="userSpaceOnUse"><g class="cls-23"><g class="cls-3"><g class="cls-24"><g class="cls-25"><polygon class="cls-26" points="117.97 209.39 112.77 216.67 103.3 211.01 108.51 203.74 117.97 209.39"/></g></g></g></g></mask><clipPath id="clip-path-52"><rect class="cls-2" x="105.33" y="208.45" width="9.69" height="3.77"/></clipPath><filter id="luminosity-noclip-23" x="153.96" y="83.51" width="9.69" height="8.39" filterUnits="userSpaceOnUse" color-interpolation-filters="sRGB"><feFlood flood-color="#fff" result="bg"/><feBlend in="SourceGraphic" in2="bg"/></filter><mask id="mask-23" x="153.96" y="83.51" width="9.69" height="8.39" maskUnits="userSpaceOnUse"><g class="cls-31"><g class="cls-32"><g class="cls-33"><polygon class="cls-34" points="157.12 83.51 163.65 87.09 160.5 91.9 153.96 88.31 157.12 83.51"/></g></g></g></mask><clipPath id="clip-path-53"><rect class="cls-2" x="155.21" y="86.41" width="7.2" height="2.58"/></clipPath><filter id="luminosity-noclip-24" x="151.09" y="84.64" width="5.07" height="4.64" filterUnits="userSpaceOnUse" color-interpolation-filters="sRGB"><feFlood flood-color="#fff" result="bg"/><feBlend in="SourceGraphic" in2="bg"/></filter><mask id="mask-24" x="151.09" y="84.64" width="5.07" height="4.64" maskUnits="userSpaceOnUse"><g class="cls-35"><g class="cls-36"><g class="cls-37"><rect class="cls-38" x="151.1" y="84.64" width="5.07" height="4.64" transform="translate(-0.09 0.16) rotate(-0.06)"/></g></g></g></mask><clipPath id="clip-path-54"><rect class="cls-2" x="151.1" y="84.64" width="5.06" height="4.63"/></clipPath><clipPath id="clip-path-55"><path class="cls-2" d="M156.16,86.41a7.46,7.46,0,0,0-2.2,2.87,25.71,25.71,0,0,1-2.86-3.58,5.56,5.56,0,0,1,.41-1.06,41.35,41.35,0,0,0,4.43,1.7l.22.07"/></clipPath><linearGradient id="Degradado_sin_nombre_35-4" x1="-808.69" y1="759.85" x2="-806.07" y2="759.85" gradientTransform="matrix(3.67, 0, 0, -3.67, 3121.12, 2878.86)" xlink:href="#Degradado_sin_nombre_35"/></defs><g class="cls-3"><g id="Capa_1" data-name="Capa 1"><g class="cls-51"><polygon class="cls-52" points="107.89 184.92 120.01 179.49 127.88 194.15 115.75 199.58 107.89 184.92"/></g><g class="cls-53"><polygon class="cls-54" points="81.35 123.39 96.28 116.7 101.28 126.02 86.34 132.71 81.35 123.39"/></g><g class="cls-55"><polygon class="cls-56" points="183.94 184.06 184.24 192.67 176.49 192.89 176.19 184.29 183.94 184.06"/></g><g class="cls-57"><polygon class="cls-58" points="148.21 95.64 199.31 180.86 106.98 227.12 55.88 141.9 148.21 95.64"/></g><g class="cls-59"><polygon class="cls-60" points="198.59 123.63 247.78 205.66 160.1 249.59 110.9 167.56 198.59 123.63"/></g><path class="cls-61" d="M143.82,130.63s-2.54,1.7-7.85,5.83l-3.42,3-3.18,2.75-4.75-2c-3.33-1.44-7.52-3.24-9.46-4.13.07-2,.21-4.8.37-7.61.27-4.73.6-9.61.71-11.37h.27l.83,0a103.16,103.16,0,0,1,11.57,4.69,129.82,129.82,0,0,1,11.88,6.84c1.84,1.18,3,2,3,2"/><g class="cls-62"><polygon class="cls-63" points="94.65 170.7 122.45 117.33 173.88 139.72 146.07 193.08 94.65 170.7"/></g><g class="cls-64"><g class="cls-65"><g class="cls-66"><g class="cls-67"><polygon class="cls-68" points="148.8 141.79 136.55 184.07 104.75 176.37 117 134.09 148.8 141.79"/></g></g></g></g><path class="cls-61" d="M116.25,117.05l.27,0,.82,0-1.07-.36a2.51,2.51,0,0,0,0,.3"/><path class="cls-61" d="M115.24,116.43l0,.54,1,.09c0-.12,0-.23,0-.3-.64-.22-1-.33-1-.33"/><path class="cls-61" d="M115.24,116.43l0,.54,1,.09c0-.12,0-.23,0-.3-.64-.22-1-.33-1-.33"/><path class="cls-69" d="M151.65,88.52a9.79,9.79,0,0,1,.19,1,.68.68,0,0,1,0,.14c.5,3.46.13,8.5,0,11.13-.14,2.81.58,9.19,1,13.68,0,.15,0,.3,0,.45.11,1.1.19,2.07.24,2.81a49.93,49.93,0,0,1-4.25,3.7l-.6.42-.21.16a23.29,23.29,0,0,1-3.22,1.83c-1.27.62-2.24,1-2.24,1-.29-.77-.59-1.69-.85-2.62-.69-2.34-1.22-4.73-1.22-4.73s-17.26-.07-23.2-.33l-.83,0h-.28l-1-.09a38.29,38.29,0,0,1-5.17-.84c-.35-.08-.69-.17-1-.27a21.07,21.07,0,0,1-7.79-3.63,86.5,86.5,0,0,1-8.69-8.75c.24-.29.49-.57.75-.85a49.77,49.77,0,0,1,14-10.15c11.2-5.75,23.92-8.5,29.93-8.76,9-.41,11.92.5,13.71,2.9a5.26,5.26,0,0,1,.76,1.9"/><path class="cls-69" d="M129.48,183.25c-.1.67-1.84,1-6.16,1.55a48.44,48.44,0,0,1-7.71.16c-1.35-.05-2.25-.13-2.25-.13-.56-1.66.81-5.13,2.22-6.54a5.7,5.7,0,0,1,.73,0,13.55,13.55,0,0,1,1.69.29,23,23,0,0,1,3.21,1l.42.16c3.6,1.35,8,2.87,7.85,3.49"/><path class="cls-69" d="M143.82,130.63s-2.54,1.7-7.84,5.84l-6.6,5.7s-2.11-.88-4.76-2c3.45-3.07,11-8.93,16.17-11.51,1.85,1.18,3,2,3,2"/><path class="cls-69" d="M110.4,99.24c-.4.43-11.63,8.3-12.36,8.42s-3.11-2.54-4.78-5a49.77,49.77,0,0,1,14-10.15c.42,3,3.47,6.41,3.15,6.76"/><path class="cls-69" d="M151.84,89.49c.53,3.47.15,8.6,0,11.27s.58,9.19,1,13.68c0,.15,0,.3,0,.45a50.68,50.68,0,0,1-6,3.93s-2-12.22-1.33-17.72c.6-4.77,3.49-8.86,6.27-11.61"/><path class="cls-69" d="M152.86,114.44c0,.15,0,.3,0,.45.11,1.1.19,2.07.24,2.81a52,52,0,0,1-4.25,3.7l-.6.42-.21.16a28.49,28.49,0,0,1-5.46,2.81c-.29-.77-.59-1.69-.85-2.62a52.57,52.57,0,0,1,4.9-3.69l.16-.11.74-.5c2-1.36,4-2.61,5.29-3.43"/><path class="cls-61" d="M139.83,106.16l.14.86c-.09,0-9,1.16-14.64,2.13-4.77.84-12.12,4-15.3,7-.35-.08-.69-.17-1-.27,3.17-3.19,11-6.66,16.17-7.57,5.63-1,14.59-2.12,14.67-2.13"/><g class="cls-70"><g class="cls-71"><path class="cls-69" d="M118,178.62a19,19,0,0,0-2.39,6.34c-1.35-.05-2.25-.14-2.25-.14-.56-1.65.81-5.12,2.22-6.53a5.7,5.7,0,0,1,.73,0,13.55,13.55,0,0,1,1.69.29"/></g></g><g class="cls-72"><g class="cls-73"><path class="cls-69" d="M140.59,101.59s.43,9.91,1.95,15.71a37.22,37.22,0,0,0,2.32,6.51c-1.27.62-2.24,1-2.24,1-.29-.77-.59-1.69-.85-2.62-.69-2.34-1.23-4.73-1.23-4.73s-17.25-.07-23.19-.33l-.84,0h-.27l-1-.09a38.29,38.29,0,0,1-5.17-.84l.2,0c5.56-.84,8.6-1.79,15.09-2.6s13.93-2.18,13.93-2.18-.83-7.33,1.34-9.73"/></g></g><path class="cls-61" d="M151.65,88.52a9.79,9.79,0,0,1,.19,1,.68.68,0,0,1,0,.14c-8.76,9.11-6.42,21.67-4.29,28.24.05.16.1.33.15.48.45,1.32.87,2.37,1.17,3.05l-.6.42-.21.16a30.42,30.42,0,0,1-1.41-3.5c-2.56-7.54-4.34-20.8,5-30"/><path class="cls-61" d="M156,86.3l.23,0,.09-.07-4.81-1.65a0,0,0,0,0,0,0,37.87,37.87,0,0,0,4.43,1.69l.07,0"/><path class="cls-61" d="M155.94,86.33l.22.08.08-.06-.23,0-.07,0"/><path class="cls-61" d="M155.94,86.33l.22.08.08-.06-.23,0-.07,0"/><path class="cls-61" d="M156.16,86.41a7.5,7.5,0,0,0-2.2,2.86,23,23,0,0,0-1.65,5.07v.07c-1.54-3.59-1.84-6.59-1.21-8.71a5.56,5.56,0,0,1,.41-1.06,41.35,41.35,0,0,0,4.43,1.7l.22.07"/><g class="cls-74"><polygon class="cls-75" points="148.79 98.08 153.26 83.28 169.19 87.3 164.72 102.1 148.79 98.08"/></g><path class="cls-61" d="M156.24,86.35l-.08.06a54,54,0,0,0,9.51,2.06l0-.06Z"/><path class="cls-69" d="M170.5,82.89c.9,3.09-.49,5.7-2.51,5.73a18.75,18.75,0,0,1-2.32-.15,54.68,54.68,0,0,1-9.51-2.06l-.21-.07a38.07,38.07,0,0,1-4.44-1.7c-.59-.27-1.17-.55-1.72-.85-3.48-1.88-6.48-4-6.4-5.08a.6.6,0,0,1,.38-.5c11.64-6.11,18.29-4.47,23.57.08a9.82,9.82,0,0,1,3.16,4.6"/><g class="cls-76"><g class="cls-77"><path class="cls-69" d="M170.5,82.89c.9,3.09-.49,5.7-2.51,5.73a18.75,18.75,0,0,1-2.32-.15,54.68,54.68,0,0,1-9.51-2.06l-.21-.07a38.07,38.07,0,0,1-4.44-1.7c-.59-.27-1.17-.55-1.72-.85-3.48-1.88-6.48-4-6.4-5.08a26.38,26.38,0,0,0,14.84,6.77c5,.52,10.11-.27,12.27-2.59"/></g></g><path class="cls-69" d="M165.58,88.66a8.14,8.14,0,0,0-.76,3.25,6.59,6.59,0,0,1-4.12-2.84,3.41,3.41,0,0,1-.83-.08,19.84,19.84,0,0,1-4.66-1.8l.95-.78s1.88.62,3.93,1.07l2.32.49,3.17.69"/><g class="cls-78"><g class="cls-79"><g class="cls-80"><g class="cls-81"><polygon class="cls-82" points="120.87 120.96 139.61 132.93 126.84 149.63 108.1 137.65 120.87 120.96"/></g></g></g></g><g class="cls-83"><polygon class="cls-84" points="95.32 139.27 146.25 224.19 55.31 269.75 4.38 184.83 95.32 139.27"/></g><g class="cls-85"><polygon class="cls-86" points="186.75 143.29 221.62 201.43 163.17 230.71 128.31 172.57 186.75 143.29"/></g><g class="cls-87"><polygon class="cls-88" points="180.17 112.84 218.03 175.98 164.87 202.62 127 139.48 180.17 112.84"/></g><path class="cls-61" d="M116.81,197.48a1.11,1.11,0,0,1-.26.07L77,203.69a1,1,0,0,1-.94-.36.82.82,0,0,1-.07-.92l25.79-43.59a1,1,0,0,1,.55-.42l60-17.4a1,1,0,0,1,1.2.56.85.85,0,0,1-.62,1.1L103.24,160l-24.67,41.7,37.66-5.83a1,1,0,0,1,1.1.72.86.86,0,0,1-.52.93"/><path class="cls-89" d="M119.65,203.72h0l-.48.2-.09,0c-1.61.19-39.42,4.64-42.87,4a3,3,0,0,1-2.41-2.64c-.41-2.14.47-5.07,1.77-5.8l.13-.07c2.84-1.27,38-11,39.46-11.37.11,0,8.37-1.56,10.45,5.55,1.79,6.11-4.11,9.28-6,10.11m-.71-.42.39-.17c1.73-.77,7.23-3.73,5.59-9.36-1.91-6.51-9.27-5.14-9.59-5.08S78.8,198.78,76,200c-1,.58-1.9,3.16-1.51,5.16a2.41,2.41,0,0,0,1.84,2.12c3.28.61,41-3.82,42.59-4"/><g class="cls-90"><polygon class="cls-91" points="79.85 199.52 80.13 207.63 72.83 207.85 72.55 199.73 79.85 199.52"/></g><g class="cls-92"><polygon class="cls-93" points="122.34 180.66 134.57 201.06 111.84 212.44 99.61 192.05 122.34 180.66"/></g><g class="cls-94"><polygon class="cls-95" points="135.64 120.83 171.21 104.9 185.05 130.73 149.49 146.66 135.64 120.83"/></g><g class="cls-96"><g class="cls-65"><g class="cls-97"><g class="cls-98"><polygon class="cls-99" points="145.95 114.36 181.28 124.76 174.74 143.31 139.42 132.91 145.95 114.36"/></g></g></g></g><path class="cls-61" d="M188.78,121.46s.73,2.48-1.33,2.73a9.87,9.87,0,0,1-2.17,2.56.85.85,0,0,1-.46.13c-1,0,1-1.92.49-2.83s-1.41-.4-2.2.63-4.52,3.13-5,2.25a12.61,12.61,0,0,1-.17-1.51c-.14-2-.32-5.09-.32-5.09a12.75,12.75,0,0,0,3.87-1.73c1.13-1,4.31-3.75,5.64-2.53s4,5.29,1.69,5.39"/><g class="cls-100"><g class="cls-79"><g class="cls-101"><g class="cls-102"><rect class="cls-103" x="177.89" y="120.85" width="8.27" height="6.97" transform="translate(-0.13 0.19) rotate(-0.06)"/></g></g></g></g><g class="cls-104"><polygon class="cls-105" points="98.83 199.77 114.28 192.85 124.23 211.4 108.78 218.32 98.83 199.77"/></g><g class="cls-106"><polygon class="cls-107" points="101.57 212.53 110.6 208.48 114.41 215.59 105.38 219.64 101.57 212.53"/></g><g class="cls-108"><polygon class="cls-109" points="115.75 185.2 121.4 182.67 123.28 186.18 117.63 188.71 115.75 185.2"/></g><path class="cls-61" d="M116.24,117.06c-.17,2.81-1,15.92-1.17,21.33,0,.5,0,1,0,1.31,0,3.37-1.12,13.7-1.71,19.09-.16,1.52-.28,2.64-.34,3.1,0,.14,0,.23,0,.23s-2.6-.36-5.51-1l-.35-.07a33.15,33.15,0,0,1-4.31-1.25l-.84-.32a68.3,68.3,0,0,1-7.52-3.72c-.06-.82-.14-2.37-.26-4.29-.35-6.1-1-16.11-2.21-19.92-1.55-5-5.59-11.07-5.9-15.74s5.51-11.35,6.44-12.32a84.17,84.17,0,0,0,8.67,8.72.08.08,0,0,0,0,0,22.52,22.52,0,0,0,8.88,3.89l.19.05a37.48,37.48,0,0,0,4.94.79l1,.09"/><g class="cls-110"><polygon class="cls-111" points="112.96 155.37 114.21 210.07 92.66 210.48 91.41 155.78 112.96 155.37"/></g><path class="cls-69" d="M110.08,116.13c-2.1,4.75-7,16.85-6.59,25.21a82.73,82.73,0,0,0,4,19.77,35.44,35.44,0,0,1-4.66-1.31l-.84-.33c-1.45-5.11-5.3-19.31-5.7-27.31-.47-9.2,3.08-16.08,4.92-20,0,0,0,0,0,0a22.39,22.39,0,0,0,8.88,3.9"/><path class="cls-69" d="M113.33,158.79c-.16,1.52-.28,2.64-.34,3.1,0,.14,0,.23,0,.23a58.63,58.63,0,0,1-10.18-2.33,67.08,67.08,0,0,1-8.35-4c-.06-.82-.14-2.36-.26-4.29a68.83,68.83,0,0,0,19.15,7.33"/><g class="cls-112"><g class="cls-65"><g class="cls-113"><g class="cls-114"><polygon class="cls-115" points="136.79 175.28 110.64 211.81 81.38 194.31 107.53 157.78 136.79 175.28"/></g></g></g></g><g class="cls-116"><g class="cls-79"><g class="cls-117"><g class="cls-118"><polygon class="cls-119" points="120.07 116.44 116.19 162.8 102.59 161.85 106.47 115.49 120.07 116.44"/></g></g></g></g><path class="cls-69" d="M114.89,210.06c-.41.24-2.61,1.15-5.12,2.16-3.89,1.57-8.53,3.41-8.53,3.41-.72-.47-2.18-4-1.9-5.54,0,0,1.32-1.13,5.65-1.56l.34,0c4.33-.31,10.62,1,9.56,1.56"/><g class="cls-120"><g class="cls-79"><g class="cls-121"><path class="cls-69" d="M114.89,210.06c-.41.24-2.61,1.15-5.12,2.16-2.1-1.72-4.12-1.92-4.44-3.72,4.33-.31,10.62,1,9.56,1.56"/></g></g></g><path class="cls-122" d="M159.1,95.53a5.11,5.11,0,0,0,.46,1.92l-.42.21a5.53,5.53,0,0,1-.51-2.12.24.24,0,0,1,.47,0"/><g class="cls-123"><g class="cls-124"><path class="cls-69" d="M162.41,88c-1,.4-1.83.74-2.55,1a19.94,19.94,0,0,1-4.65-1.8l.95-.78s1.89.62,3.93,1.07l2.32.5"/></g></g><g class="cls-125"><g class="cls-79"><g class="cls-126"><g class="cls-127"><rect class="cls-128" x="151.1" y="84.64" width="5.07" height="4.64" transform="translate(-0.09 0.16) rotate(-0.06)"/></g></g></g></g></g></g></svg>